{"title":"Terminator Genisys {2015} NEW HD-TS XVID AC3-MRG","uid":12103140,"size":1844697142,"categoryP":"video","categoryS":"movies","magnet":"?xt=urn:btih:25be9979bd230799c8cf9e09cbe119c81eff772c&amp;dn=Terminator+Genisys+%7B2015%7D+NEW+HD-TS+XVID+AC3-MRG&amp;tr=udp%3A%2F%2Ftracker.openbittorrent.com%3A80&amp;tr=udp%3A%2F%2Fopen.demonii.com%3A1337&amp;tr=udp%3A%2F%2Ftracker.coppersurfer.tk%3A6969&amp;tr=udp%3A%2F%2Fexodus.desync.com%3A6969","seeders":14,"leechers":1,"uploader":"SaM","files":17,"time":1436381365,"description":"Terminator Genisys {2015} NEW HD-TS XVID AC3-MRG\n\nNEW FULL HDTS ............SAMPLE...WITHIN.............\n\nFormat                      : AVI\nFormat/Info                 : Audio Video Interleave\nFile size                   : 1.68 GiB\nDuration                    : 1h 58mn\nOverall bit rate            : 2 031 Kbps\n\nVideo\nID                          : 0\nFormat                      : xvid\nCodec ID                    : xvid\nDuration                    : 1h 58mn\nBit rate                    : 1 795 Kbps\nWidth                       : 720 pixels\nHeight                      : 384 pixels\nDisplay aspect ratio        : 1.85:1\nFrame rate                  : 29.917 fps\nBits/(Pixel*Frame)          : 0.217\nStream size                 : 1.48 GiB (88%)\n\nAudio\nID                          : 1\nFormat                      : AC-3\nFormat/Info                 : Audio Coding 3\nMode extension              : CM (complete main)\nFormat settings, Endianness : Big\nCodec ID                    : 2000\nDuration                    : 1h 57mn\nBit rate mode               : Constant\nBit rate                    : 224 Kbps\nChannel(s)                  : 2 channels\nChannel positions           : Front: L R\nSampling rate               : 48.0 KHz\nCompression mode            : Lossy\nStream size                 : 189 MiB (11%)\nAlignment                   : Aligned on interleaves\nInterleave, duration        : 32 ms (0.96 video frame)\n &lt;a href=&quot;\nhttp://extraimago.com/image/cqv&quot; rel=&quot;nofollow&quot; target=&quot;_NEW&quot;&gt;\nhttp://extraimago.com/image/cqv&lt;/a&gt;\n &lt;a href=&quot;\nhttp://extraimago.com/image/cqA&quot; rel=&quot;nofollow&quot; target=&quot;_NEW&quot;&gt;\nhttp://extraimago.com/image/cqA&lt;/a&gt;\n &lt;a href=&quot;\nhttp://extraimago.com/image/cqW&quot; rel=&quot;nofollow&quot; target=&quot;_NEW&quot;&gt;\nhttp://extraimago.com/image/cqW&lt;/a&gt;\n &lt;a href=&quot;\nhttp://extraimago.com/image/cqf&quot; rel=&quot;nofollow&quot; target=&quot;_NEW&quot;&gt;\nhttp://extraimago.com/image/cqf&lt;/a&gt;\n &lt;a href=&quot;\nhttp://extraimago.com/image/cy8&quot; rel=&quot;nofollow&quot; target=&quot;_NEW&quot;&gt;\nhttp://extraimago.com/image/cy8&lt;/a&gt;\n &lt;a href=&quot;\nhttp://extraimago.com/image/cya&quot; rel=&quot;nofollow&quot; target=&quot;_NEW&quot;&gt;\nhttp://extraimago.com/image/cya&lt;/a&gt;\n &lt;a href=&quot;\nhttp://extraimago.com/image/cyw&quot; rel=&quot;nofollow&quot; target=&quot;_NEW&quot;&gt;\nhttp://extraimago.com/image/cyw&lt;/a&gt;\n &lt;a href=&quot;\nhttp://extraimago.com/image/cy2&quot; rel=&quot;nofollow&quot; target=&quot;_NEW&quot;&gt;\nhttp://extraimago.com/image/cy2&lt;/a&gt;\n &lt;a href=&quot;\nhttp://extraimago.com/image/cyN&quot; rel=&quot;nofollow&quot; target=&quot;_NEW&quot;&gt;\nhttp://extraimago.com/image/cyN&lt;/a&gt;\n &lt;a href=&quot;\nhttp://extraimago.com/image/cyT&quot; rel=&quot;nofollow&quot; target=&quot;_NEW&quot;&gt;\nhttp://extraimago.com/image/cyT&lt;/a&gt;","torrent":{"xt":"urn:btih:25be9979bd230799c8cf9e09cbe119c81eff772c","amp;dn":"Terminator+Genisys+%7B2015%7D+NEW+HD-TS+XVID+AC3-MRG","amp;tr":["udp%3A%2F%2Ftracker.openbittorrent.com%3A80","udp%3A%2F%2Fopen.demonii.com%3A1337","udp%3A%2F%2Ftracker.coppersurfer.tk%3A6969","udp%3A%2F%2Fexodus.desync.com%3A6969"],"infoHash":"25be9979bd230799c8cf9e09cbe119c81eff772c","infoHashBuffer":{"type":"Buffer","data":[37,190,153,121,189,35,7,153,200,207,158,9,203,225,25,200,30,255,119,44]},"announce":[],"urlList":[]}}